<mxfile host="app.diagrams.net" modified="2021-12-04T10:01:35.259Z" agent="5.0 (Macintosh; Intel Mac OS X 10_15_7) AppleWebKit/537.36 (KHTML, like Gecko) Chrome/95.0.4638.69 Safari/537.36" etag="NDTyVvd_VLoy25P_jsxp" version="15.5.1" type="github">
  <diagram id="6JPCep872dIXSYOhOden" name="Page-1">
    <mxGraphModel dx="1298" dy="782" grid="1" gridSize="10" guides="1" tooltips="1" connect="1" arrows="1" fold="1" page="1" pageScale="1" pageWidth="850" pageHeight="1100" math="0" shadow="0">
      <root>
        <mxCell id="0" />
        <mxCell id="1" parent="0" />
        <mxCell id="a5xk4CFbIq2Gz5puKSW1-1" value="RaboBank" style="ellipse;whiteSpace=wrap;html=1;" vertex="1" parent="1">
          <mxGeometry x="360" y="60" width="120" height="80" as="geometry" />
        </mxCell>
        <mxCell id="a5xk4CFbIq2Gz5puKSW1-2" value="Europe" style="ellipse;whiteSpace=wrap;html=1;" vertex="1" parent="1">
          <mxGeometry x="60" y="210" width="120" height="80" as="geometry" />
        </mxCell>
        <mxCell id="a5xk4CFbIq2Gz5puKSW1-3" value="Africa" style="ellipse;whiteSpace=wrap;html=1;" vertex="1" parent="1">
          <mxGeometry x="720" y="210" width="120" height="80" as="geometry" />
        </mxCell>
        <mxCell id="a5xk4CFbIq2Gz5puKSW1-4" value="Asia" style="ellipse;whiteSpace=wrap;html=1;" vertex="1" parent="1">
          <mxGeometry x="500" y="210" width="120" height="80" as="geometry" />
        </mxCell>
        <mxCell id="a5xk4CFbIq2Gz5puKSW1-5" value="Latin America" style="ellipse;whiteSpace=wrap;html=1;" vertex="1" parent="1">
          <mxGeometry x="290" y="210" width="120" height="80" as="geometry" />
        </mxCell>
        <mxCell id="a5xk4CFbIq2Gz5puKSW1-6" value="" style="endArrow=classic;html=1;rounded=0;exitX=0.5;exitY=1;exitDx=0;exitDy=0;entryX=0.5;entryY=0;entryDx=0;entryDy=0;" edge="1" parent="1" source="a5xk4CFbIq2Gz5puKSW1-1" target="a5xk4CFbIq2Gz5puKSW1-5">
          <mxGeometry width="50" height="50" relative="1" as="geometry">
            <mxPoint x="400" y="140" as="sourcePoint" />
            <mxPoint x="380" y="210" as="targetPoint" />
          </mxGeometry>
        </mxCell>
        <mxCell id="a5xk4CFbIq2Gz5puKSW1-7" value="" style="endArrow=classic;html=1;rounded=0;entryX=1;entryY=0;entryDx=0;entryDy=0;exitX=0.5;exitY=1;exitDx=0;exitDy=0;" edge="1" parent="1" source="a5xk4CFbIq2Gz5puKSW1-1" target="a5xk4CFbIq2Gz5puKSW1-2">
          <mxGeometry width="50" height="50" relative="1" as="geometry">
            <mxPoint x="400" y="140" as="sourcePoint" />
            <mxPoint x="370" y="200" as="targetPoint" />
          </mxGeometry>
        </mxCell>
        <mxCell id="a5xk4CFbIq2Gz5puKSW1-8" value="" style="endArrow=classic;html=1;rounded=0;entryX=0.5;entryY=0;entryDx=0;entryDy=0;" edge="1" parent="1" target="a5xk4CFbIq2Gz5puKSW1-3">
          <mxGeometry width="50" height="50" relative="1" as="geometry">
            <mxPoint x="420" y="140" as="sourcePoint" />
            <mxPoint x="400" y="210" as="targetPoint" />
          </mxGeometry>
        </mxCell>
        <mxCell id="a5xk4CFbIq2Gz5puKSW1-9" value="" style="endArrow=classic;html=1;rounded=0;" edge="1" parent="1" target="a5xk4CFbIq2Gz5puKSW1-4">
          <mxGeometry width="50" height="50" relative="1" as="geometry">
            <mxPoint x="420" y="140" as="sourcePoint" />
            <mxPoint x="400" y="210" as="targetPoint" />
          </mxGeometry>
        </mxCell>
        <mxCell id="a5xk4CFbIq2Gz5puKSW1-12" value="" style="rounded=1;whiteSpace=wrap;html=1;" vertex="1" parent="1">
          <mxGeometry x="290" y="340" width="120" height="60" as="geometry" />
        </mxCell>
        <mxCell id="a5xk4CFbIq2Gz5puKSW1-13" value="" style="rounded=1;whiteSpace=wrap;html=1;" vertex="1" parent="1">
          <mxGeometry x="520" y="350" width="120" height="60" as="geometry" />
        </mxCell>
        <mxCell id="a5xk4CFbIq2Gz5puKSW1-14" value="" style="rounded=1;whiteSpace=wrap;html=1;" vertex="1" parent="1">
          <mxGeometry x="710" y="340" width="120" height="60" as="geometry" />
        </mxCell>
        <mxCell id="a5xk4CFbIq2Gz5puKSW1-15" value="Countries set" style="rounded=1;whiteSpace=wrap;html=1;" vertex="1" parent="1">
          <mxGeometry x="305" y="340" width="120" height="60" as="geometry" />
        </mxCell>
        <mxCell id="a5xk4CFbIq2Gz5puKSW1-16" value="Countries set" style="rounded=1;whiteSpace=wrap;html=1;" vertex="1" parent="1">
          <mxGeometry x="530" y="350" width="120" height="60" as="geometry" />
        </mxCell>
        <mxCell id="a5xk4CFbIq2Gz5puKSW1-17" value="Countries set" style="rounded=1;whiteSpace=wrap;html=1;" vertex="1" parent="1">
          <mxGeometry x="720" y="340" width="120" height="60" as="geometry" />
        </mxCell>
        <mxCell id="a5xk4CFbIq2Gz5puKSW1-18" value="" style="rounded=1;whiteSpace=wrap;html=1;" vertex="1" parent="1">
          <mxGeometry x="70" y="340" width="120" height="60" as="geometry" />
        </mxCell>
        <mxCell id="a5xk4CFbIq2Gz5puKSW1-20" value="Countries set" style="rounded=1;whiteSpace=wrap;html=1;" vertex="1" parent="1">
          <mxGeometry x="80" y="340" width="120" height="60" as="geometry" />
        </mxCell>
        <mxCell id="a5xk4CFbIq2Gz5puKSW1-21" value="" style="endArrow=none;dashed=1;html=1;dashPattern=1 3;strokeWidth=2;rounded=0;exitX=0.5;exitY=0;exitDx=0;exitDy=0;" edge="1" parent="1" source="a5xk4CFbIq2Gz5puKSW1-15">
          <mxGeometry width="50" height="50" relative="1" as="geometry">
            <mxPoint x="310" y="340" as="sourcePoint" />
            <mxPoint x="360" y="290" as="targetPoint" />
          </mxGeometry>
        </mxCell>
        <mxCell id="a5xk4CFbIq2Gz5puKSW1-22" value="" style="endArrow=none;dashed=1;html=1;dashPattern=1 3;strokeWidth=2;rounded=0;exitX=0.5;exitY=0;exitDx=0;exitDy=0;" edge="1" parent="1">
          <mxGeometry width="50" height="50" relative="1" as="geometry">
            <mxPoint x="119.5" y="340" as="sourcePoint" />
            <mxPoint x="119.5" y="290" as="targetPoint" />
          </mxGeometry>
        </mxCell>
        <mxCell id="a5xk4CFbIq2Gz5puKSW1-23" value="" style="endArrow=none;dashed=1;html=1;dashPattern=1 3;strokeWidth=2;rounded=0;exitX=0.5;exitY=0;exitDx=0;exitDy=0;" edge="1" parent="1">
          <mxGeometry width="50" height="50" relative="1" as="geometry">
            <mxPoint x="562.5" y="350" as="sourcePoint" />
            <mxPoint x="557.5" y="300" as="targetPoint" />
          </mxGeometry>
        </mxCell>
        <mxCell id="a5xk4CFbIq2Gz5puKSW1-24" value="" style="endArrow=none;dashed=1;html=1;dashPattern=1 3;strokeWidth=2;rounded=0;exitX=0.5;exitY=0;exitDx=0;exitDy=0;" edge="1" parent="1">
          <mxGeometry width="50" height="50" relative="1" as="geometry">
            <mxPoint x="782.5" y="340" as="sourcePoint" />
            <mxPoint x="777.5" y="290" as="targetPoint" />
          </mxGeometry>
        </mxCell>
        <mxCell id="a5xk4CFbIq2Gz5puKSW1-25" value="" style="whiteSpace=wrap;html=1;aspect=fixed;" vertex="1" parent="1">
          <mxGeometry x="90" y="430" width="60" height="60" as="geometry" />
        </mxCell>
        <mxCell id="a5xk4CFbIq2Gz5puKSW1-27" value="" style="whiteSpace=wrap;html=1;aspect=fixed;" vertex="1" parent="1">
          <mxGeometry x="100" y="440" width="60" height="60" as="geometry" />
        </mxCell>
        <mxCell id="a5xk4CFbIq2Gz5puKSW1-28" value="Region&lt;br&gt;set" style="whiteSpace=wrap;html=1;aspect=fixed;" vertex="1" parent="1">
          <mxGeometry x="110" y="450" width="60" height="60" as="geometry" />
        </mxCell>
        <mxCell id="a5xk4CFbIq2Gz5puKSW1-29" value="" style="whiteSpace=wrap;html=1;aspect=fixed;" vertex="1" parent="1">
          <mxGeometry x="740" y="440" width="60" height="60" as="geometry" />
        </mxCell>
        <mxCell id="a5xk4CFbIq2Gz5puKSW1-32" value="" style="whiteSpace=wrap;html=1;aspect=fixed;" vertex="1" parent="1">
          <mxGeometry x="730" y="450" width="60" height="60" as="geometry" />
        </mxCell>
        <mxCell id="a5xk4CFbIq2Gz5puKSW1-33" value="" style="whiteSpace=wrap;html=1;aspect=fixed;" vertex="1" parent="1">
          <mxGeometry x="550" y="440" width="60" height="60" as="geometry" />
        </mxCell>
        <mxCell id="a5xk4CFbIq2Gz5puKSW1-34" value="" style="whiteSpace=wrap;html=1;aspect=fixed;" vertex="1" parent="1">
          <mxGeometry x="335" y="440" width="60" height="60" as="geometry" />
        </mxCell>
        <mxCell id="a5xk4CFbIq2Gz5puKSW1-35" value="" style="whiteSpace=wrap;html=1;aspect=fixed;" vertex="1" parent="1">
          <mxGeometry x="320" y="450" width="60" height="60" as="geometry" />
        </mxCell>
        <mxCell id="a5xk4CFbIq2Gz5puKSW1-36" value="" style="whiteSpace=wrap;html=1;aspect=fixed;" vertex="1" parent="1">
          <mxGeometry x="540" y="450" width="60" height="60" as="geometry" />
        </mxCell>
        <mxCell id="a5xk4CFbIq2Gz5puKSW1-37" value="&lt;span&gt;Region&lt;/span&gt;&lt;br&gt;&lt;span&gt;set&lt;/span&gt;" style="whiteSpace=wrap;html=1;aspect=fixed;" vertex="1" parent="1">
          <mxGeometry x="720" y="460" width="60" height="60" as="geometry" />
        </mxCell>
        <mxCell id="a5xk4CFbIq2Gz5puKSW1-39" value="&lt;span&gt;Region&lt;/span&gt;&lt;br&gt;&lt;span&gt;set&lt;/span&gt;" style="whiteSpace=wrap;html=1;aspect=fixed;" vertex="1" parent="1">
          <mxGeometry x="530" y="460" width="60" height="60" as="geometry" />
        </mxCell>
        <mxCell id="a5xk4CFbIq2Gz5puKSW1-40" value="&lt;span&gt;Region&lt;/span&gt;&lt;br&gt;&lt;span&gt;set&lt;/span&gt;" style="whiteSpace=wrap;html=1;aspect=fixed;" vertex="1" parent="1">
          <mxGeometry x="305" y="460" width="60" height="60" as="geometry" />
        </mxCell>
        <mxCell id="a5xk4CFbIq2Gz5puKSW1-41" value="" style="endArrow=none;dashed=1;html=1;dashPattern=1 3;strokeWidth=2;rounded=0;exitX=0.5;exitY=0;exitDx=0;exitDy=0;" edge="1" parent="1" source="a5xk4CFbIq2Gz5puKSW1-34">
          <mxGeometry width="50" height="50" relative="1" as="geometry">
            <mxPoint x="320" y="450" as="sourcePoint" />
            <mxPoint x="370" y="400" as="targetPoint" />
          </mxGeometry>
        </mxCell>
        <mxCell id="a5xk4CFbIq2Gz5puKSW1-42" value="" style="endArrow=none;dashed=1;html=1;dashPattern=1 3;strokeWidth=2;rounded=0;exitX=0.5;exitY=0;exitDx=0;exitDy=0;" edge="1" parent="1">
          <mxGeometry width="50" height="50" relative="1" as="geometry">
            <mxPoint x="577.5" y="440" as="sourcePoint" />
            <mxPoint x="582.5" y="400" as="targetPoint" />
          </mxGeometry>
        </mxCell>
        <mxCell id="a5xk4CFbIq2Gz5puKSW1-43" value="" style="endArrow=none;dashed=1;html=1;dashPattern=1 3;strokeWidth=2;rounded=0;exitX=0.5;exitY=0;exitDx=0;exitDy=0;" edge="1" parent="1">
          <mxGeometry width="50" height="50" relative="1" as="geometry">
            <mxPoint x="767.5" y="440" as="sourcePoint" />
            <mxPoint x="772.5" y="400" as="targetPoint" />
          </mxGeometry>
        </mxCell>
        <mxCell id="a5xk4CFbIq2Gz5puKSW1-44" value="" style="endArrow=none;dashed=1;html=1;dashPattern=1 3;strokeWidth=2;rounded=0;exitX=0.5;exitY=0;exitDx=0;exitDy=0;" edge="1" parent="1">
          <mxGeometry width="50" height="50" relative="1" as="geometry">
            <mxPoint x="117.5" y="440" as="sourcePoint" />
            <mxPoint x="122.5" y="400" as="targetPoint" />
          </mxGeometry>
        </mxCell>
        <mxCell id="a5xk4CFbIq2Gz5puKSW1-45" value="" style="whiteSpace=wrap;html=1;aspect=fixed;" vertex="1" parent="1">
          <mxGeometry x="50" y="570" width="60" height="60" as="geometry" />
        </mxCell>
        <mxCell id="a5xk4CFbIq2Gz5puKSW1-46" value="" style="whiteSpace=wrap;html=1;aspect=fixed;" vertex="1" parent="1">
          <mxGeometry x="35" y="580" width="60" height="60" as="geometry" />
        </mxCell>
        <mxCell id="a5xk4CFbIq2Gz5puKSW1-47" value="&lt;span&gt;Region&lt;/span&gt;&lt;br&gt;&lt;span&gt;set&lt;/span&gt;" style="whiteSpace=wrap;html=1;aspect=fixed;" vertex="1" parent="1">
          <mxGeometry x="20" y="590" width="60" height="60" as="geometry" />
        </mxCell>
        <mxCell id="a5xk4CFbIq2Gz5puKSW1-48" value="" style="whiteSpace=wrap;html=1;aspect=fixed;" vertex="1" parent="1">
          <mxGeometry x="170" y="560" width="60" height="60" as="geometry" />
        </mxCell>
        <mxCell id="a5xk4CFbIq2Gz5puKSW1-49" value="" style="whiteSpace=wrap;html=1;aspect=fixed;" vertex="1" parent="1">
          <mxGeometry x="155" y="570" width="60" height="60" as="geometry" />
        </mxCell>
        <mxCell id="a5xk4CFbIq2Gz5puKSW1-50" value="&lt;span&gt;Region&lt;/span&gt;&lt;br&gt;&lt;span&gt;set&lt;/span&gt;" style="whiteSpace=wrap;html=1;aspect=fixed;" vertex="1" parent="1">
          <mxGeometry x="140" y="580" width="60" height="60" as="geometry" />
        </mxCell>
        <mxCell id="a5xk4CFbIq2Gz5puKSW1-51" value="" style="whiteSpace=wrap;html=1;aspect=fixed;" vertex="1" parent="1">
          <mxGeometry x="300" y="560" width="60" height="60" as="geometry" />
        </mxCell>
        <mxCell id="a5xk4CFbIq2Gz5puKSW1-52" value="" style="whiteSpace=wrap;html=1;aspect=fixed;" vertex="1" parent="1">
          <mxGeometry x="285" y="570" width="60" height="60" as="geometry" />
        </mxCell>
        <mxCell id="a5xk4CFbIq2Gz5puKSW1-53" value="&lt;span&gt;Region&lt;/span&gt;&lt;br&gt;&lt;span&gt;set&lt;/span&gt;" style="whiteSpace=wrap;html=1;aspect=fixed;" vertex="1" parent="1">
          <mxGeometry x="270" y="580" width="60" height="60" as="geometry" />
        </mxCell>
        <mxCell id="a5xk4CFbIq2Gz5puKSW1-54" value="" style="whiteSpace=wrap;html=1;aspect=fixed;" vertex="1" parent="1">
          <mxGeometry x="410" y="560" width="60" height="60" as="geometry" />
        </mxCell>
        <mxCell id="a5xk4CFbIq2Gz5puKSW1-55" value="" style="whiteSpace=wrap;html=1;aspect=fixed;" vertex="1" parent="1">
          <mxGeometry x="395" y="570" width="60" height="60" as="geometry" />
        </mxCell>
        <mxCell id="a5xk4CFbIq2Gz5puKSW1-56" value="&lt;span&gt;Region&lt;/span&gt;&lt;br&gt;&lt;span&gt;set&lt;/span&gt;" style="whiteSpace=wrap;html=1;aspect=fixed;" vertex="1" parent="1">
          <mxGeometry x="380" y="580" width="60" height="60" as="geometry" />
        </mxCell>
        <mxCell id="a5xk4CFbIq2Gz5puKSW1-57" value="" style="endArrow=none;dashed=1;html=1;dashPattern=1 3;strokeWidth=2;rounded=0;" edge="1" parent="1">
          <mxGeometry width="50" height="50" relative="1" as="geometry">
            <mxPoint x="80" y="560" as="sourcePoint" />
            <mxPoint x="130" y="510" as="targetPoint" />
          </mxGeometry>
        </mxCell>
        <mxCell id="a5xk4CFbIq2Gz5puKSW1-58" value="" style="endArrow=none;dashed=1;html=1;dashPattern=1 3;strokeWidth=2;rounded=0;" edge="1" parent="1">
          <mxGeometry width="50" height="50" relative="1" as="geometry">
            <mxPoint x="90" y="570" as="sourcePoint" />
            <mxPoint x="140" y="520" as="targetPoint" />
          </mxGeometry>
        </mxCell>
        <mxCell id="a5xk4CFbIq2Gz5puKSW1-59" value="" style="endArrow=none;dashed=1;html=1;dashPattern=1 3;strokeWidth=2;rounded=0;entryX=0.633;entryY=1;entryDx=0;entryDy=0;entryPerimeter=0;exitX=0.25;exitY=0;exitDx=0;exitDy=0;" edge="1" parent="1" source="a5xk4CFbIq2Gz5puKSW1-48" target="a5xk4CFbIq2Gz5puKSW1-28">
          <mxGeometry width="50" height="50" relative="1" as="geometry">
            <mxPoint x="100" y="580" as="sourcePoint" />
            <mxPoint x="150" y="520" as="targetPoint" />
            <Array as="points">
              <mxPoint x="200" y="540" />
            </Array>
          </mxGeometry>
        </mxCell>
      </root>
    </mxGraphModel>
  </diagram>
</mxfile>
